<?xml version="1.0" encoding="UTF-8"?>
<svg id="Layer_1" xmlns="http://www.w3.org/2000/svg" xmlns:xlink="http://www.w3.org/1999/xlink" version="1.1" viewBox="0 0 640 640">
  <!-- Generator: Adobe Illustrator 29.6.1, SVG Export Plug-In . SVG Version: 2.1.1 Build 9)  -->
  <defs>
    <style>
      .st0 {
        opacity: .8;
      }

      .st0, .st1 {
        isolation: isolate;
      }

      .st2 {
        fill: url(#radial-gradient);
      }

      .st3 {
        fill: url(#linear-gradient);
      }

      .st4 {
        fill: #fff;
      }

      .st5 {
        opacity: 0;
      }

      .st1 {
        fill: #002447;
        opacity: 0;
      }

      .st6 {
        fill: #000a4f;
      }
    </style>
    <radialGradient id="radial-gradient" cx="-318.8" cy="386.2" fx="-318.8" fy="386.2" r="5" gradientTransform="translate(-8639 90239.8) rotate(45) scale(181 -181)" gradientUnits="userSpaceOnUse">
      <stop offset="0" stop-color="#0ecad4"/>
      <stop offset="1" stop-color="#006bd6"/>
    </radialGradient>
    <linearGradient id="linear-gradient" x1="-9.7" y1="20.2" x2="471.6" y2="456.3" gradientUnits="userSpaceOnUse">
      <stop offset="0" stop-color="#fff" stop-opacity="0"/>
      <stop offset=".5" stop-color="#fff" stop-opacity=".4"/>
      <stop offset=".8" stop-color="#fff" stop-opacity=".7"/>
      <stop offset=".9" stop-color="#fff" stop-opacity=".8"/>
    </linearGradient>
  </defs>
  <path class="st2" d="M142.4,17.6L17.6,142.4C6.3,153.7,0,168.9,0,184.8v425.2c0,16.6,13.4,30,30,30h580c16.6,0,30-13.4,30-30V30c0-16.6-13.4-30-30-30H184.9c-15.9,0-31.2,6.3-42.4,17.6h-.1Z"/>
  <g class="st0">
    <path class="st3" d="M319.6,609.1c-77.6,0-150.6-30.2-205.4-85.1-54.9-54.9-85.1-127.8-85.1-205.4s30.2-150.6,85.1-205.4c54.9-54.9,127.8-85.1,205.4-85.1s150.6,30.2,205.4,85.1c54.9,54.9,85.1,127.8,85.1,205.4s-30.2,150.6-85.1,205.4c-54.9,54.9-127.8,85.1-205.4,85.1ZM412,176.8c-27.4,0-49.8,22.3-49.8,49.8v73.5c0,27.4,22.3,49.8,49.8,49.8h110.3c27.4,0,49.8-22.3,49.8-49.8v-73.5c0-27.4-22.3-49.8-49.8-49.8h-110.3ZM117.8,176.8c-27.4,0-49.8,22.3-49.8,49.8v73.5c0,27.4,22.3,49.8,49.8,49.8h110.3c27.4,0,49.8-22.3,49.8-49.8v-73.5c0-27.4-22.3-49.8-49.8-49.8h-110.3Z"/>
    <path class="st4" d="M319.6,32c38.7,0,76.2,7.6,111.5,22.5,34.1,14.4,64.8,35.1,91.1,61.4,26.3,26.3,47,57,61.4,91.1,14.9,35.3,22.5,72.8,22.5,111.5s-7.6,76.2-22.5,111.5c-14.4,34.1-35.1,64.8-61.4,91.1-26.3,26.3-57,47-91.1,61.4-35.3,14.9-72.8,22.5-111.5,22.5s-76.2-7.6-111.5-22.5c-34.1-14.4-64.8-35.1-91.1-61.4-26.3-26.3-47-57-61.4-91.1-14.9-35.3-22.5-72.8-22.5-111.5s7.6-76.2,22.5-111.5c14.4-34.1,35.1-64.8,61.4-91.1,26.3-26.3,57-47,91.1-61.4,35.3-14.9,72.8-22.5,111.5-22.5M412,353.9h110.3c29.6,0,53.8-24.1,53.8-53.8v-73.5c0-29.6-24.1-53.8-53.8-53.8h-110.3c-29.7,0-53.8,24.1-53.8,53.8v73.5c0,29.7,24.1,53.8,53.8,53.8M117.8,353.9h110.3c29.7,0,53.8-24.1,53.8-53.8v-73.5c0-29.6-24.1-53.8-53.8-53.8h-110.3c-29.7,0-53.8,24.1-53.8,53.8v73.5c0,29.7,24.1,53.8,53.8,53.8M319.6,24C156.9,24,25,155.9,25,318.6s131.9,294.5,294.5,294.5,294.5-131.9,294.5-294.5S482.2,24,319.6,24h0ZM412,345.9c-25.2,0-45.8-20.5-45.8-45.8v-73.5c0-25.2,20.5-45.8,45.8-45.8h110.3c25.2,0,45.8,20.5,45.8,45.8v73.5c0,25.2-20.5,45.8-45.8,45.8h-110.3ZM117.8,345.9c-25.2,0-45.8-20.5-45.8-45.8v-73.5c0-25.2,20.5-45.8,45.8-45.8h110.3c25.2,0,45.8,20.5,45.8,45.8v73.5c0,25.2-20.5,45.8-45.8,45.8h-110.3Z"/>
  </g>
  <path class="st6" d="M320.1,503.4c-51.2,0-119.7-22.3-153-61.3-3.4-3.9-2.9-9.9,1.1-13.3,2.2-1.9,4.6-2.3,6.1-2.3,2.8,0,5.3,1.2,7.2,3.4,29.7,34.8,93,54.8,138.7,54.8s108.9-20,138.7-54.7c1.8-2.1,4.4-3.3,7.1-3.3s4,.4,6.2,2.3c1.9,1.6,3,3.8,3.2,6.3.2,2.5-.6,5-2.3,7-33.2,38.9-101.7,61.2-153,61.2Z"/>
  <path class="st6" d="M614.1,247.2h-27.7l-1.7-36.8c-7.3-28.5-33-48.4-62.5-48.4h-110.3c-26.4,0-49.9,15.8-59.8,40.3l-2.3,5.6c-2.7,9.2-1.7,30-1.7,30h-55.7s0-19.5-2.2-30l-2.3-5.7c-9.8-24.5-33.3-40.3-59.8-40.3h-110.3c-29.5,0-55.2,19.9-62.5,48.4l-1.7,36.8h-27.7c-5.2,0-9.4,4.2-9.4,9.4s4.2,9.4,9.4,9.4h27.4v34.2c0,35.6,29,64.5,64.5,64.5h110.3c35.6,0,64.5-29,64.5-64.5v-43.4h54.8v47.2c2,33.8,30.1,60.7,64.4,60.7h110.3c35.6,0,64.5-29,64.5-64.5v-34.2h27.4c5.2,0,9.4-4.2,9.4-9.4s-4.2-9.4-9.4-9.4ZM273.9,300.2c0,25.2-20.5,45.8-45.8,45.8h-110.3c-25.2,0-45.8-20.5-45.8-45.8v-73.5c0-25.2,20.5-45.8,45.8-45.8h110.3c25.2,0,45.8,20.5,45.8,45.8v73.5ZM568.1,300.2c0,25.2-20.5,45.8-45.8,45.8h-110.3c-25.2,0-45.8-20.5-45.8-45.8v-73.5c0-25.2,20.5-45.8,45.8-45.8h110.3c25.2,0,45.8,20.5,45.8,45.8v73.5Z"/>
  <path class="st4" d="M229.3,295.8h-17.1v-68.7h45.5v16h-28.4v12.3h26.8v15.6h-26.8v24.8h0Z"/>
  <path class="st1" d="M197.8,266.9h16.9c-2.5,17.5-17.2,29.1-35,29.1s-35.4-14.6-35.4-34.3c0-4.6.8-9.1,2.6-13.3,1.8-4.2,4.4-8,7.6-11.2,6.7-6.5,15.8-10.1,25.1-10,17.6,0,32.8,11.7,34.9,28.9h-16.9c-5.1-19.5-36.8-17.6-36.8,5.7s32.1,25,36.8,5.3h0Z"/>
  <path class="st4" d="M194.3,266.9c-2.9,9.8-13.2,15.7-23.4,13.2-10.2-2.5-16.6-12.3-14.4-22.4,2.1-10,12-16.6,22.3-15,4.2.6,8.1,2.6,11.1,5.7,2,2.1,3.5,4.6,4.4,7.3h16.4c-2.1-17.2-17.3-28.9-34.9-28.9-9.4-.1-18.4,3.5-25.1,10-3.3,3.2-5.9,7-7.6,11.2-1.8,4.2-2.6,8.8-2.6,13.3,0,19.7,15.8,34.3,35.4,34.3s32.5-11.6,35-29.1h-16.4,0Z"/>
  <path class="st1" d="M133.3,285.8h-23.8l-3.9,10h-18.2l27.8-68.8h12.1l28.9,68.8h-19.2l-3.9-10h0ZM116.3,268.8l-.6,1.6h11.5l-.4-1.2-5.4-14.7-5.2,14.4Z"/>
  <path class="st4" d="M128.8,285.8h-23.7l-3.9,10h-18.2l27.8-68.8h12.1l28.9,68.8h-19.2l-3.9-10ZM111.8,268.8l-.6,1.6h11.5l-.4-1.2-5.4-14.7-5.2,14.4h0Z"/>
  <path class="st4" d="M504,293.2v-67.1h20.3c12.9,34,15.5,41.7,16.3,44.5h.3c-.6-7.8-.8-19.3-.8-29.8v-14.8h15.4v67.1h-19.6c-14-38-16.1-44-16.8-46.5h-.2c.5,8.4.6,19.9.6,31.5v15h-15.3Z"/>
  <path class="st5" d="M507.4,259.3c0,19.6-8.1,35.2-28.2,35.2s-27.2-15.7-27.2-35.2,8.2-34.3,28.1-34.3,27.3,16.2,27.3,34.4ZM468.9,259.2c0,12.9,3.3,21.8,10.9,21.8s10.8-8.2,10.8-21.8-2.5-20.7-11-20.7-10.7,8.2-10.7,20.7Z"/>
  <path class="st4" d="M503.9,259.3c0,19.6-8.1,35.2-28.2,35.2s-27.2-15.7-27.2-35.2,8.2-34.3,28.1-34.3,27.3,16.2,27.3,34.4ZM465.4,259.2c0,12.9,3.3,21.8,10.9,21.8s10.8-8.2,10.8-21.8-2.5-20.7-11-20.7-10.7,8.2-10.7,20.7Z"/>
  <path class="st5" d="M422.4,272.7c.7,5.5,3.6,8.8,9.3,8.8s7.6-2.6,7.6-6.3-3-7-11.5-9.5c-15.6-4.5-20.2-10.9-20.2-20.3,0-13.5,10.3-20.5,23.3-20.5s23.5,8,24.2,20.4h-16.3c-.5-4.2-2.3-7.7-7.8-7.7s-6.5,2.1-6.5,5.7,2.8,5.4,11.1,7.9c16.5,5,21.1,11.8,21.1,21.9s-8.8,21.2-25.4,21.2-24.5-8.3-25.2-21.7h16.5Z"/>
  <path class="st4" d="M418.7,272.7c.7,5.5,3.6,8.8,9.3,8.8s7.6-2.6,7.6-6.3-3-7-11.5-9.5c-15.6-4.5-20.2-10.9-20.2-20.3,0-13.5,10.3-20.5,23.3-20.5s23.5,8,24.2,20.4h-16.3c-.5-4.2-2.3-7.7-7.8-7.7s-6.5,2.1-6.5,5.7,2.8,5.4,11.1,7.9c16.5,5,21.1,11.8,21.1,21.9s-8.8,21.2-25.4,21.2-24.5-8.3-25.2-21.7h16.5Z"/>
  <path class="st5" d="M408.3,270.7c0,16-5.1,23.5-21.5,23.5s-7.7-.4-9.3-.7v-13.4c1.7.2,3.7.3,5.6.3,5.9,0,6.7-3.5,6.7-9.2v-45.1h18.4v44.6Z"/>
  <path class="st4" d="M404.3,270.7c0,16-5.1,23.5-21.5,23.5s-7.7-.4-9.3-.7v-13.4c1.7.2,3.7.3,5.6.3,5.9,0,6.7-3.5,6.7-9.2v-45.1h18.4v44.6Z"/>
</svg>